#N canvas 19 23 1627 939 10;
#X msg 548 684 stop;
#X obj 1049 729 writesf~ 2;
#X msg 1316 709 start;
#X msg 1171 659 stop;
#X msg 1130 659 print;
#X text 1160 704 1;
#X text 1299 705 2;
#X obj 1097 854 delread~ delayRight 1500;
#X obj 1099 878 delread~ delayLeft 1000;
#X text 1169 679 CAMBIAR NOMBRE FICHERO CADA NUEVA REC.;
#X obj 906 881 dac~ 1 2;
#X obj 543 289 threshold~ 1 3000 0.1 1000;
#X obj 543 312 bng 15 250 50 0 empty empty empty 17 7 0 10 #fcfcfc #000000 #000000;
#X floatatom 543 379 5 0 0 0 - - - 0;
#X obj 658 220 *~ 5;
#X msg 541 467 open Brazil.wav \, 1;
#X obj 691 124 adc~;
#N canvas 0 22 796 453 (subpatch) 0;
#X array array1 100 float 3;
#A 0 0 0 0 0 0 0 0 0 0 0 0 0 0 0 0 0 0 0 0 0 0 0 0 0 0 0 0 0 0 0 0 0 0 0 0 0 0 0 0 0 0 0 0 0 0 0 0 0 0 0 0 0 0 0 0 0 0 0 0 0 0 0 0 0 0 0 0 0 0 0 0 0 0 0 0 0 0 0 0 0 0 0 0 0 0 0 0 0 0 0 0 0 0 0 0 0 0 0 0 0;
#X coords 0 1 99 -1 200 140 1;
#X restore 957 140 graph;
#X obj 849 229 tabwrite~ array1;
#X obj 855 185 bng 15 250 50 0 empty empty empty 17 7 0 10 #fcfcfc #000000 #000000;
#X text 915 207 msec.;
#X obj 855 206 metro 160;
#X msg 1178 707 open SELVA.wav;
#X msg 558 494 open Brazil1.wav \, 1;
#X obj 1107 815 delwrite~ delayLeft 3000;
#X obj 1105 790 delwrite~ delayRight 5000;
#X msg 572 519 open Brazil2.wav \, 1;
#X msg 588 549 open Brazil3.wav \, 1;
#X msg 608 587 open cicadidae.wav \, 1;
#X text 608 381 Aves e insectos 305000 msec;
#X msg 119 624 stop;
#X obj 203 243 threshold~ 1 3000 0.1 1000;
#X obj 203 266 bng 15 250 50 0 empty empty empty 17 7 0 10 #fcfcfc #000000 #000000;
#X floatatom 203 333 5 0 0 0 - - - 0;
#X msg 188 392 open water.wav \, 1;
#X obj 198 780 dac~ 1 2;
#X msg 199 417 open agua.wav \, 1;
#X msg 205 445 open trensobrepuente.wav \, 1;
#X text 251 332 entorno 305000 msec;
#X obj 203 214 *~ 1.5;
#X obj 791 188 *~ 5.5;
#X obj 170 706 *~ 2.5;
#X obj 542 408 sel 0 1 2 3 4 5 6;
#X obj 544 356 random 7;
#X obj 596 708 readsf~ 7;
#X msg 620 617 open silveredantbird.wav \, 1;
#X msg 640 655 open greatblackhawk.wav \, 1;
#X obj 162 650 readsf~ 10;
#X obj 203 311 random 10;
#X obj 203 356 sel 0 1 2 3 4 5 6 7 8 9;
#X msg 214 471 open ambience.wav \, 1;
#X msg 214 495 open ambience2.wav \, 1;
#X msg 229 516 open ambience3.wav \, 1;
#X msg 233 540 open ambience4.wav \, 1;
#X msg 235 564 open ambience5.wav \, 1;
#X msg 239 588 open ambience6.wav \, 1;
#X msg 240 612 open ambience7.wav \, 1;
#X obj 204 289 metro 305000;
#X obj 544 335 metro 610000;
#X obj 791 153 dsp;
#X obj 791 123 tgl 15 0 empty empty empty 17 7 0 10 #fcfcfc #000000 #000000 0 1;
#X obj 791 89 loadbang;
#X text 1185 561 [D.E.A.R]: Dispositivo Experiencial \, Autónomo y Reactivo \, Miguel Oliveros. II Festival Aloha Invierno \, La Casa Encendida \, Madrid 2015/16;
#X connect 0 0 44 0;
#X connect 2 0 1 0;
#X connect 3 0 1 0;
#X connect 4 0 1 0;
#X connect 7 0 1 1;
#X connect 7 0 10 1;
#X connect 8 0 1 0;
#X connect 8 0 10 0;
#X connect 11 0 12 0;
#X connect 12 0 58 0;
#X connect 13 0 42 0;
#X connect 14 0 11 0;
#X connect 15 0 44 0;
#X connect 16 0 14 0;
#X connect 16 0 39 0;
#X connect 16 0 40 0;
#X connect 19 0 21 0;
#X connect 21 0 18 0;
#X connect 22 0 1 0;
#X connect 23 0 44 0;
#X connect 26 0 44 0;
#X connect 27 0 44 0;
#X connect 28 0 44 0;
#X connect 30 0 47 0;
#X connect 31 0 32 0;
#X connect 32 0 57 0;
#X connect 33 0 49 0;
#X connect 34 0 47 0;
#X connect 36 0 47 0;
#X connect 37 0 47 0;
#X connect 39 0 31 0;
#X connect 40 0 18 0;
#X connect 41 0 35 0;
#X connect 41 0 35 1;
#X connect 42 0 15 0;
#X connect 42 1 23 0;
#X connect 42 2 26 0;
#X connect 42 3 27 0;
#X connect 42 4 28 0;
#X connect 42 5 45 0;
#X connect 42 6 46 0;
#X connect 43 0 13 0;
#X connect 45 0 44 0;
#X connect 46 0 44 0;
#X connect 47 0 41 0;
#X connect 47 1 41 0;
#X connect 47 2 41 0;
#X connect 47 3 41 0;
#X connect 48 0 33 0;
#X connect 49 0 34 0;
#X connect 49 1 36 0;
#X connect 49 2 37 0;
#X connect 49 3 50 0;
#X connect 49 4 51 0;
#X connect 49 5 52 0;
#X connect 49 6 53 0;
#X connect 49 7 54 0;
#X connect 49 8 55 0;
#X connect 49 9 56 0;
#X connect 50 0 47 0;
#X connect 51 0 47 0;
#X connect 52 0 47 0;
#X connect 53 0 47 0;
#X connect 54 0 47 0;
#X connect 55 0 47 0;
#X connect 56 0 47 0;
#X connect 57 0 48 0;
#X connect 58 0 43 0;
#X connect 60 0 59 0;
#X connect 60 0 19 0;
#X connect 61 0 60 0;
